<svg xmlns="http://www.w3.org/2000/svg" version="1.1" xmlns:xlink="http://www.w3.org/1999/xlink" viewBox="0 0 200 200"><rect width="200" height="200" fill="url('#gradient')"></rect><defs><linearGradient id="gradient" gradientTransform="rotate(45 0.5 0.5)"><stop offset="0%" stop-color="#dee90b"></stop><stop offset="100%" stop-color="#d9e241"></stop></linearGradient></defs><g><g fill="#1b3855" transform="matrix(3.7996289424860854,0,0,3.7996289424860854,5.028159050419504,127.01473715486685)" stroke="#0e5278" stroke-width="0"><path d="M4.73-14.22L4.73 0L1.31 0L1.31-14.22L4.73-14.22ZM12.72-4.82L10.54-4.82L10.54 0L7.11 0L7.11-14.22L12.78-14.22Q14.41-14.22 15.67-13.62Q16.92-13.02 17.61-11.91Q18.30-10.80 18.30-9.39L18.30-9.39Q18.30-7.31 16.81-6.07Q15.32-4.82 12.72-4.82L12.72-4.82ZM10.54-11.57L10.54-7.47L12.78-7.47Q13.78-7.47 14.30-7.97Q14.82-8.47 14.82-9.38L14.82-9.38Q14.82-10.37 14.29-10.97Q13.75-11.56 12.82-11.57L12.82-11.57L10.54-11.57ZM27.29 0L26.46-2.66L21.77-2.66L20.95 0L17.29 0L22.50-14.22L25.72-14.22L30.98 0L27.29 0ZM24.11-10.23L22.59-5.30L25.64-5.30L24.11-10.23ZM37.63-4.82L35.44-4.82L35.44 0L32.01 0L32.01-14.22L37.69-14.22Q39.32-14.22 40.57-13.62Q41.83-13.02 42.51-11.91Q43.20-10.80 43.20-9.39L43.20-9.39Q43.20-7.31 41.71-6.07Q40.22-4.82 37.63-4.82L37.63-4.82ZM35.44-11.57L35.44-7.47L37.69-7.47Q38.68-7.47 39.20-7.97Q39.73-8.47 39.73-9.38L39.73-9.38Q39.73-10.37 39.19-10.97Q38.65-11.56 37.72-11.57L37.72-11.57L35.44-11.57ZM48.68-14.22L48.68 0L45.26 0L45.26-14.22L48.68-14.22Z"></path></g></g></svg>